<?xml version="1.0" standalone="yes"?>
<svg xmlns="http://www.w3.org/2000/svg" width="307" height="66">
<path style="fill:#000000; stroke:none;" d="M0 0L0 66L307 66L307 0L0 0z"/>
<path style="fill:#fb5b71; stroke:none;" d="M65 18C66.5061 18.683 67.3148 18.8259 69 19C67.494 18.317 66.6852 18.1741 65 18z"/>
<path style="fill:#f998a4; stroke:none;" d="M70 18L70 24C75.3789 23.1022 75.3789 18.8978 70 18z"/>
<path style="fill:#fc3452; stroke:none;" d="M212 18C211.438 19.8005 211.176 21.1219 211 23L216 23L216 19L212 18z"/>
<path style="fill:#fb5d74; stroke:none;" d="M213 18C214.248 18.6848 214.548 18.7488 216 19C214.752 18.3152 214.452 18.2512 213 18z"/>
<path style="fill:#f998a4; stroke:none;" d="M216 19L216 23C222.574 24.4963 222.574 17.5037 216 19z"/>
<path style="fill:#fb657b; stroke:none;" d="M64 19L64 23C64.7102 21.2405 64.7102 20.7595 64 19z"/>
<path style="fill:#fc3452; stroke:none;" d="M65 19L65 23L70 23L70 19L65 19M16 20C18.0349 26.0249 20.1633 32.0136 22.3079 38C23.6074 41.6276 24.1758 44.6693 28 46C30.0426 37.1708 34.2742 29.1201 35 20L31 20C30.7166 26.1868 28.1804 31.934 27 38C24.0551 32.4112 22.4082 26.1428 21 20L16 20z"/>
<path style="fill:#f998a4; stroke:none;" d="M21 20L26 36C28.2262 33.0121 28.9884 29.5631 30 26C28.2756 24.0469 27.6553 22.5367 27 20L21 20z"/>
<path style="fill:#fb546c; stroke:none;" d="M35 20L35 23C35.6961 21.4463 35.6961 21.5537 35 20z"/>
<path style="fill:#f998a4; stroke:none;" d="M36 20C34.2588 28.8575 29.1924 36.9699 29 46L34 46C36.0091 37.3198 39.9176 28.8748 41 20L36 20z"/>
<path style="fill:#f7bfc7; stroke:none;" d="M75.3333 20.6667C75.2778 20.7223 75.2222 21.7778 75.6667 21.3333C75.7222 21.2778 75.7778 20.2222 75.3333 20.6667z"/>
<path style="fill:#fc4861; stroke:none;" d="M141 20L141 46C143.477 40.097 143.477 25.903 141 20z"/>
<path style="fill:#fc3452; stroke:none;" d="M142 20L142 46L145 46L145 35C147.857 35.0987 151.25 35.8123 153.945 34.5926C159.316 32.1615 159.572 25.0868 154.867 21.858C151.243 19.3716 146.163 20.0005 142 20z"/>
<path style="fill:#f998a4; stroke:none;" d="M152 20C157.949 24.9461 160.353 30.9826 152 35C158.89 37.8092 167.242 30.2178 162.218 23.2785C159.899 20.0745 155.543 20.0759 152 20z"/>
<path style="fill:#f7b7bf; stroke:none;" d="M210.333 20.6667C210.278 20.7222 210.222 21.7778 210.667 21.3333C210.722 21.2777 210.778 20.2222 210.333 20.6667z"/>
<path style="fill:#fb5f74; stroke:none;" d="M216.333 20.6667C216.278 20.7222 216.222 21.7778 216.667 21.3333C216.722 21.2778 216.778 20.2222 216.333 20.6667z"/>
<path style="fill:#f79fab; stroke:none;" d="M16 21L17 22L16 21z"/>
<path style="fill:#fb697e; stroke:none;" d="M21.3333 21.6667C21.2778 21.7222 21.2222 22.7778 21.6667 22.3333C21.7222 22.2778 21.7778 21.2222 21.3333 21.6667z"/>
<path style="fill:#f7cbcf; stroke:none;" d="M273 21L274 22L273 21z"/>
<path style="fill:#f7cbd3; stroke:none;" d="M30 22L31 23L30 22z"/>
<path style="fill:#fa6e82; stroke:none;" d="M269 22C270.248 22.6848 270.548 22.7488 272 23C270.752 22.3152 270.452 22.2512 269 22z"/>
<path style="fill:#fc3452; stroke:none;" d="M269 23L269 27L265 27L265 30L269 30C267.717 35.5014 266.849 46.0228 275 46.3958C277.028 46.4887 279.104 45.5947 281 45L280 41C271.956 43.8354 273 35.7517 273 30L279 30L279 27L274 27L274 22L269 23z"/>
<path style="fill:#f998a4; stroke:none;" d="M273 23L274 27L279 27L280 22C277.472 22.0519 275.418 22.2776 273 23z"/>
<path style="fill:#fb6177; stroke:none;" d="M30 23L30 26C30.6961 24.4463 30.6961 24.5537 30 23z"/>
<path style="fill:#fa6e82; stroke:none;" d="M65 23C66.5061 23.683 67.3148 23.8259 69 24C67.494 23.317 66.6852 23.1741 65 23z"/>
<path style="fill:#fb6478; stroke:none;" d="M212 23C213.506 23.683 214.315 23.8259 216 24C214.494 23.317 213.685 23.1741 212 23z"/>
<path style="fill:#fb939f; stroke:none;" d="M17 24L18 25L17 24z"/>
<path style="fill:#fb5971; stroke:none;" d="M22.3333 24.6667C22.2778 24.7222 22.2222 25.7778 22.6667 25.3333C22.7222 25.2778 22.7778 24.2222 22.3333 24.6667z"/>
<path style="fill:#fb5e74; stroke:none;" d="M34.3333 24.6667C34.2778 24.7222 34.2222 25.7778 34.6667 25.3333C34.7222 25.2778 34.7778 24.2222 34.3333 24.6667z"/>
<path style="fill:#fc586f; stroke:none;" d="M145 24L145 32C145.985 29.6685 145.981 27.5433 146 25L152 25C149.668 24.0155 147.543 24.0187 145 24z"/>
<path style="fill:#f9b5bd; stroke:none;" d="M268 24L268 27C268.696 25.4463 268.696 25.5537 268 24z"/>
<path style="fill:#f7b7bf; stroke:none;" d="M39.3333 25.6667C39.2778 25.7222 39.2222 26.7778 39.6667 26.3333C39.7222 26.2778 39.7778 25.2222 39.3333 25.6667z"/>
<path style="fill:#f998a4; stroke:none;" d="M146 25L146 31L151 31L151 25L146 25z"/>
<path style="fill:#000000; stroke:none;" d="M151 25L151 31C152.766 28.5798 152.766 27.4202 151 25z"/>
<path style="fill:#fa8e9c; stroke:none;" d="M152 25L153 26L152 25z"/>
<path style="fill:#f9a5af; stroke:none;" d="M18.3333 26.6667C18.2778 26.7222 18.2222 27.7778 18.6667 27.3333C18.7222 27.2778 18.7778 26.2222 18.3333 26.6667z"/>
<path style="fill:#f7c3cb; stroke:none;" d="M34.3333 26.6667C34.2778 26.7222 34.2222 27.7778 34.6667 27.3333C34.7222 27.2778 34.7778 26.2222 34.3333 26.6667z"/>
<path style="fill:#f9a9b3; stroke:none;" d="M44 26L45 27L44 26z"/>
<path style="fill:#fc3452; stroke:none;" d="M45.0046 26.6667C34.3574 28.829 36.5244 48.6403 47.9992 46.3333C59.0227 44.1171 56.7965 24.2719 45.0046 26.6667z"/>
<path style="fill:#f9818f; stroke:none;" d="M48 26L49 27L48 26z"/>
<path style="fill:#f998a4; stroke:none;" d="M49 26C55.7339 33.3785 58.2874 39.2957 49 46C57.7524 49.4066 63.79 38.397 59.821 31.0548C57.5825 26.9138 53.2612 26.198 49 26z"/>
<path style="fill:#f9adb5; stroke:none;" d="M86 26L87 27L86 26z"/>
<path style="fill:#fc3452; stroke:none;" d="M96 44C95.3872 42.3385 94.9573 41.5167 94 40C92.5011 40.9656 90.8978 42.2785 88.9745 41.9815C84.3284 41.264 83.2202 35.3567 86.3148 32.3364C89.0327 29.6838 92.7198 31.6214 96 31L96 29C93.805 27.7719 91.6223 26.4352 89.0131 26.4012C76.4032 26.2373 76.5295 48.2643 89.9954 46.5177C92.2273 46.2283 94.0826 45.0728 96 44z"/>
<path style="fill:#f998a4; stroke:none;" d="M91 26C93.774 28.5467 96.6315 31.3208 100 33C102.135 26.6646 96.0449 26.108 91 26z"/>
<path style="fill:#f99da9; stroke:none;" d="M106 26L107 27L106 26z"/>
<path style="fill:#fc3452; stroke:none;" d="M116 43C110.605 42.0717 107.326 43.1276 104 38L117 38C116.924 34.8469 116.834 31.7479 114.566 29.2785C110.34 24.6768 103.006 26.3154 100.742 32.0185C96.7103 42.1777 108.162 51.4745 116 43z"/>
<path style="fill:#f97f8f; stroke:none;" d="M110 26L111 27L110 26z"/>
<path style="fill:#f998a4; stroke:none;" d="M111 26C114.45 29.864 116.709 32.6898 117 38L122 38C121.928 30.0744 119.164 26.3794 111 26z"/>
<path style="fill:#f96a7e; stroke:none;" d="M153 26L153 30C153.71 28.2405 153.71 27.7595 153 26z"/>
<path style="fill:#fba3ab; stroke:none;" d="M171 26L172 27L171 26z"/>
<path style="fill:#fc3452; stroke:none;" d="M169 29C167.174 27.6638 166.247 27.3096 164 27L164 46L168 46C168 38.1945 167.579 29.0861 178 32C177.106 26.5261 173.054 25.2528 169 29z"/>
<path style="fill:#f9919d; stroke:none;" d="M175 26L176 27L175 26z"/>
<path style="fill:#f998a4; stroke:none;" d="M177 26C177.768 27.3142 177.686 27.2321 179 28L178 31C179.457 32.1034 179.897 32.5434 181 34C182.573 32.0512 183.291 30.4122 184 28C181.57 26.8182 179.687 26.2695 177 26z"/>
<path style="fill:#f9919f; stroke:none;" d="M188 26L189 27L188 26z"/>
<path style="fill:#fc3452; stroke:none;" d="M189.015 26.6381C177.395 28.3538 179.944 48.8327 191.996 46.3341C203.506 43.948 200.789 24.8999 189.015 26.6381z"/>
<path style="fill:#f7bfc7; stroke:none;" d="M192.667 26.3333C192.222 26.7778 193.278 26.7222 193.333 26.6667C193.778 26.2222 192.722 26.2778 192.667 26.3333z"/>
<path style="fill:#f998a4; stroke:none;" d="M194 26C195.307 28.4048 197.356 30.4703 198.402 33.0147C200.634 38.444 196.794 42.7133 194 47C208.223 45.7094 208.058 27.4502 194 26z"/>
<path style="fill:#f9a9b3; stroke:none;" d="M229 26L230 27L229 26z"/>
<path style="fill:#fc3452; stroke:none;" d="M239 42C233.515 42.6738 230.538 42.6409 227 38L240 38C239.723 34.6424 239.378 30.9218 236.697 28.5147C231.658 23.9904 224.221 27.8227 223.243 34.0008C221.745 43.4668 233.572 52.0837 239 42z"/>
<path style="fill:#f97887; stroke:none;" d="M233 26L234 27L233 26z"/>
<path style="fill:#f998a4; stroke:none;" d="M234 26C237.45 29.864 239.709 32.6898 240 38L243 38C244.281 30.0097 242.855 26.2141 234 26z"/>
<path style="fill:#f7abb7; stroke:none;" d="M250 26L251 27L250 26z"/>
<path style="fill:#fc3452; stroke:none;" d="M259 40C257.245 40.8836 255.035 42.5564 252.953 42.1227C248.044 41.0999 247.404 34.3102 251.229 31.6574C253.909 29.7994 257.938 31.5344 261 31L261 29C257.809 27.5113 254.615 25.7605 251.004 26.8086C244.23 28.7747 241 38.3475 246.398 43.5008C250.836 47.7367 260.116 47.6621 259 40z"/>
<path style="fill:#f998a4; stroke:none;" d="M255 26C258.211 28.4594 261.374 31.2486 265 33L265 27L255 26z"/>
<path style="fill:#fb6c80; stroke:none;" d="M29.3333 27.6667C29.2778 27.7222 29.2222 28.7778 29.6667 28.3333C29.7222 28.2778 29.7778 27.2222 29.3333 27.6667z"/>
<path style="fill:#fa788b; stroke:none;" d="M60 27L60 31L65 31C63.1854 29.7427 61.5653 28.5864 60 27z"/>
<path style="fill:#fc3452; stroke:none;" d="M61 27L61 30C68.1963 32.1846 67.3623 41.8259 60 43L60 46L74 46L74 43C66.6767 40.7769 69.5325 32.9235 70 27L61 27z"/>
<path style="fill:#f998a4; stroke:none;" d="M70 27C70.3982 32.0451 70.9994 36.9177 71 42L74 42L74 46L79 46L79 42L75 42L75 27L70 27z"/>
<path style="fill:#fc5069; stroke:none;" d="M163 27L163 31C163.71 29.2405 163.71 28.7595 163 27z"/>
<path style="fill:#f9929f; stroke:none;" d="M168 27L168 29C169.635 28.4549 169.455 28.6352 170 27L168 27z"/>
<path style="fill:#f7cbd3; stroke:none;" d="M185 27L186 28L185 27z"/>
<path style="fill:#fc3452; stroke:none;" d="M205 27L205 30L212 30C212 34.6999 213.518 42.6638 210.987 46.7978C209.659 48.9665 203.291 48.0504 203.917 50.8349C204.922 55.3023 213.296 52.265 214.821 49.7716C218.14 44.3429 216 33.2019 216 27L205 27z"/>
<path style="fill:#f95e72; stroke:none;" d="M216 27L216 45C217.952 40.349 217.952 31.651 216 27z"/>
<path style="fill:#f998a4; stroke:none;" d="M217 27C217 35.2955 218.84 45.9852 212 52C216.278 53.7236 220.297 51.5491 221.566 46.9954C223.245 40.9742 222 33.2258 222 27L217 27z"/>
<path style="fill:#fb6076; stroke:none;" d="M248.667 27.3333C248.222 27.7778 249.278 27.7222 249.333 27.6667C249.778 27.2222 248.722 27.2778 248.667 27.3333z"/>
<path style="fill:#fa687c; stroke:none;" d="M279 27L279 30C279.696 28.4463 279.696 28.5537 279 27z"/>
<path style="fill:#f997a3; stroke:none;" d="M280 27L279 31L285 31L285 27L280 27z"/>
<path style="fill:#fb546c; stroke:none;" d="M23.3333 28.6667C23.2778 28.7222 23.2222 29.7778 23.6667 29.3333C23.7222 29.2778 23.7778 28.2222 23.3333 28.6667z"/>
<path style="fill:#f7c7cb; stroke:none;" d="M40 28L41 29L40 28z"/>
<path style="fill:#fc4d66; stroke:none;" d="M81 31C82.4566 29.8966 82.8966 29.4566 84 28C81.8764 28.8993 81.8993 28.8764 81 31z"/>
<path style="fill:#f79ba7; stroke:none;" d="M102 28L103 29L102 28z"/>
<path style="fill:#fa6e81; stroke:none;" d="M178.333 28.6667C178.278 28.7222 178.222 29.7778 178.667 29.3333C178.722 29.2777 178.778 28.2222 178.333 28.6667z"/>
<path style="fill:#f7c3cb; stroke:none;" d="M225 28L226 29L225 28z"/>
<path style="fill:#fa788b; stroke:none;" d="M264 29C265.453 30.8429 266.735 31.2585 269 32C267.547 30.1571 266.265 29.7415 264 29z"/>
<path style="fill:#f999a3; stroke:none;" d="M19 30L20 31L19 30z"/>
<path style="fill:#000000; stroke:none;" d="M33 30L34 31L33 30M38 30L39 31L38 30z"/>
<path style="fill:#f998a4; stroke:none;" d="M50 42C48.2225 37.771 48.2225 35.229 50 31C40.291 29.4026 40.291 43.5974 50 42z"/>
<path style="fill:#f7c7cb; stroke:none;" d="M80 30L81 31L80 30z"/>
<path style="fill:#fa7c8c; stroke:none;" d="M87 30C88.769 30.7789 90.0359 30.9124 92 31C90.231 30.2211 88.964 30.0876 87 30z"/>
<path style="fill:#f998a4; stroke:none;" d="M105 34C108.115 33.784 109.837 33.2772 112 31C108.326 30.0208 106.26 30.2021 105 34z"/>
<path style="fill:#fa7787; stroke:none;" d="M171 30C172.506 30.683 173.315 30.8259 175 31C173.494 30.317 172.685 30.1741 171 30z"/>
<path style="fill:#f998a4; stroke:none;" d="M193 42C191.923 37.9388 192.116 35.0697 193 31C184.139 29.7331 184.139 43.2669 193 42z"/>
<path style="fill:#fb7a89; stroke:none;" d="M205 30C207.052 30.8743 208.747 30.9528 211 31L211 46C212.982 41.2762 212 35.0902 212 30L205 30z"/>
<path style="fill:#f998a4; stroke:none;" d="M228 34C231.198 33.7703 232.766 33.2961 235 31C231.288 29.9983 229.479 30.3201 228 34z"/>
<path style="fill:#fa798a; stroke:none;" d="M251 30C252.769 30.7789 254.036 30.9124 256 31C254.231 30.2211 252.964 30.0876 251 30z"/>
<path style="fill:#fb586e; stroke:none;" d="M273 30C275.052 30.8742 276.747 30.9528 279 31C276.948 30.1257 275.253 30.0472 273 30z"/>
<path style="fill:#fb677c; stroke:none;" d="M24.3333 31.6667C24.2778 31.7222 24.2222 32.7778 24.6667 32.3333C24.7222 32.2778 24.7778 31.2222 24.3333 31.6667z"/>
<path style="fill:#fb586f; stroke:none;" d="M38.3333 31.6667C38.2778 31.7222 38.2222 32.7778 38.6667 32.3333C38.7222 32.2778 38.7778 31.2222 38.3333 31.6667z"/>
<path style="fill:#000000; stroke:none;" d="M60 31C60.9293 34.9142 60.9293 38.0857 60 42L65 42L65 31L60 31z"/>
<path style="fill:#fc5068; stroke:none;" d="M65 31L65 42C66.4309 38.59 66.4309 34.41 65 31z"/>
<path style="fill:#fc5a71; stroke:none;" d="M69 31L69 42C70.4309 38.59 70.4309 34.41 69 31z"/>
<path style="fill:#f8b0b9; stroke:none;" d="M70 31L70 42C71.4309 38.59 71.4309 34.41 70 31z"/>
<path style="fill:#f998a4; stroke:none;" d="M93 42C89.8603 37.9038 89.7822 35.6345 92 31C87.2105 31.156 79.6358 36.4745 86.3164 40.9722C88.2012 42.2412 90.8501 41.9746 93 42z"/>
<path style="fill:#fb7c8e; stroke:none;" d="M95 31L96 32L95 31z"/>
<path style="fill:#000000; stroke:none;" d="M94 34C92.8137 32.9644 92.3964 32.6614 91 32C89.3778 35.5384 89.3778 37.4616 91 41C94.2922 40.9884 96.9021 41.1783 100 40C99.4924 37.4075 99.4924 35.5925 100 33C98.3648 32.4549 98.5451 32.6352 98 31C96.0514 31.9357 95.4498 32.3924 94 34z"/>
<path style="fill:#fb7686; stroke:none;" d="M146 31C148.052 31.8742 149.747 31.9528 152 32C149.948 31.1257 148.253 31.0472 146 31z"/>
<path style="fill:#fb6c80; stroke:none;" d="M163 31L163 46C164.74 41.8523 164.74 35.1477 163 31z"/>
<path style="fill:#f998a4; stroke:none;" d="M168 46L173 46C173.001 40.3256 173.422 36.129 176 31C166.597 31.3062 168 38.5155 168 46z"/>
<path style="fill:#f7abb7; stroke:none;" d="M223 31L224 32L223 31z"/>
<path style="fill:#f998a4; stroke:none;" d="M256 42C254.278 37.9014 253.68 35.267 257 32C251.69 29.7962 244.624 35.0707 249.742 40.3966C251.372 42.0931 253.854 41.9297 256 42z"/>
<path style="fill:#f8b6be; stroke:none;" d="M273 31L273 35C273.71 33.2405 273.71 32.7595 273 31z"/>
<path style="fill:#f998a4; stroke:none;" d="M274 31C273.533 34.6955 273.031 38.2648 273 42L279 42C278.549 38.1834 278.549 34.8166 279 31L274 31z"/>
<path style="fill:#000000; stroke:none;" d="M49 32C48.0291 35.3103 48.0291 37.6897 49 41C51.127 37.8684 51.127 35.1317 49 32z"/>
<path style="fill:#f7b3bb; stroke:none;" d="M79 32L80 33L79 32z"/>
<path style="fill:#fb6779; stroke:none;" d="M93.6667 32.3333C93.2222 32.7778 94.2778 32.7222 94.3333 32.6667C94.7778 32.2222 93.7222 32.2778 93.6667 32.3333z"/>
<path style="fill:#000000; stroke:none;" d="M110 32L110 34L112 34L112 32L110 32z"/>
<path style="fill:#fb778a; stroke:none;" d="M176 32L177 33L176 32z"/>
<path style="fill:#000000; stroke:none;" d="M193 32C191.908 34.8672 191.695 36.9475 192 40C195.078 37.7975 194.831 35.1202 193 32M234 32L233 34L235 34C235 32.1468 235.3 32.6499 234 32z"/>
<path style="fill:#fb546c; stroke:none;" d="M239.333 32.6667C239.278 32.7222 239.222 33.7778 239.667 33.3333C239.722 33.2778 239.778 32.2222 239.333 32.6667z"/>
<path style="fill:#fb6177; stroke:none;" d="M257.667 32.3333C257.222 32.7778 258.278 32.7222 258.333 32.6667C258.778 32.2222 257.722 32.2778 257.667 32.3333z"/>
<path style="fill:#f98b99; stroke:none;" d="M20 33L21 34L20 33z"/>
<path style="fill:#fb6d82; stroke:none;" d="M31.3333 33.6667C31.2778 33.7222 31.2222 34.7778 31.6667 34.3333C31.7222 34.2778 31.7778 33.2222 31.3333 33.6667z"/>
<path style="fill:#000000; stroke:none;" d="M32 33L33 34L32 33M37 33L38 34L37 33z"/>
<path style="fill:#f99da9; stroke:none;" d="M50 33L51 34L50 33z"/>
<path style="fill:#f7b3bb; stroke:none;" d="M93 33L94 34L93 33z"/>
<path style="fill:#fb7487; stroke:none;" d="M112 33L113 34L112 33z"/>
<path style="fill:#f7c7cb; stroke:none;" d="M258 33L259 34L258 33z"/>
<path style="fill:#fb5870; stroke:none;" d="M25.3333 34.6667C25.2778 34.7222 25.2222 35.7778 25.6667 35.3333C25.7222 35.2778 25.7778 34.2222 25.3333 34.6667z"/>
<path style="fill:#fb546c; stroke:none;" d="M27.3333 34.6667C27.2778 34.7222 27.2222 35.7778 27.6667 35.3333C27.7222 35.2778 27.7778 34.2222 27.3333 34.6667z"/>
<path style="fill:#fb576e; stroke:none;" d="M55 34L55 40C55.9511 37.7147 55.9511 36.2853 55 34z"/>
<path style="fill:#fb526a; stroke:none;" d="M79 34L79 39C79.8299 36.9695 79.8299 36.0305 79 34z"/>
<path style="fill:#f99ba7; stroke:none;" d="M99 34L99 39C99.8299 36.9695 99.8299 36.0305 99 34z"/>
<path style="fill:#fb667b; stroke:none;" d="M105 34C106.769 34.7789 108.036 34.9124 110 35C108.231 34.2211 106.964 34.0876 105 34z"/>
<path style="fill:#f9a7b1; stroke:none;" d="M194 34L195 35L194 34z"/>
<path style="fill:#fb667b; stroke:none;" d="M228 34C229.769 34.779 231.036 34.9124 233 35C231.231 34.2211 229.964 34.0876 228 34z"/>
<path style="fill:#fb5c73; stroke:none;" d="M243 34L243 38C243.71 36.2405 243.71 35.7595 243 34z"/>
<path style="fill:#f7cbcf; stroke:none;" d="M278.333 34.6667C278.278 34.7223 278.222 35.7778 278.667 35.3333C278.722 35.2778 278.778 34.2222 278.333 34.6667z"/>
<path style="fill:#f97f8d; stroke:none;" d="M21.3333 35.6667C21.2778 35.7222 21.2222 36.7778 21.6667 36.3333C21.7222 36.2778 21.7778 35.2222 21.3333 35.6667z"/>
<path style="fill:#f97685; stroke:none;" d="M37 35L37 38C37.6961 36.4463 37.6961 36.5537 37 35z"/>
<path style="fill:#fb6278; stroke:none;" d="M51 35L51 38C51.6961 36.4463 51.6961 36.5537 51 35z"/>
<path style="fill:#fc586f; stroke:none;" d="M145 35L145 46C146.327 42.8367 146 39.4144 146 36L151 36C148.948 35.1258 147.253 35.0472 145 35z"/>
<path style="fill:#f7c7cd; stroke:none;" d="M173 35L173 46C174.431 42.59 174.431 38.41 173 35z"/>
<path style="fill:#f7c1c7; stroke:none;" d="M222 35L222 38C222.696 36.4463 222.696 36.5537 222 35z"/>
<path style="fill:#000000; stroke:none;" d="M26 36L27 37L26 36z"/>
<path style="fill:#f998a4; stroke:none;" d="M146 36L146 46L151 46L151 36L146 36z"/>
<path style="fill:#fa98a4; stroke:none;" d="M26 37L27 38L26 37z"/>
<path style="fill:#fa8091; stroke:none;" d="M268 37L269 38L268 37z"/>
<path style="fill:#fb7283; stroke:none;" d="M22.3333 38.6667C22.2778 38.7222 22.2222 39.7778 22.6667 39.3333C22.7222 39.2778 22.7778 38.2222 22.3333 38.6667z"/>
<path style="fill:#f7afb7; stroke:none;" d="M37 38L38 39L37 38z"/>
<path style="fill:#f998a4; stroke:none;" d="M104 38C105.92 42.3483 108.442 42.8895 113 43C111.745 41.3338 110.841 39.9013 110 38L104 38z"/>
<path style="fill:#f9a3ad; stroke:none;" d="M194 38L195 39L194 38z"/>
<path style="fill:#fb5c73; stroke:none;" d="M227.333 38.6667C227.278 38.7222 227.222 39.7778 227.667 39.3333C227.722 39.2778 227.778 38.2222 227.333 38.6667z"/>
<path style="fill:#f998a4; stroke:none;" d="M228 38C229.303 42.292 231.735 42.8611 236 43C233.743 39.662 232.049 38.3183 228 38z"/>
<path style="fill:#000000; stroke:none;" d="M233 38C235.569 42.5357 240.423 41.6134 245 43C242.381 37.4952 238.549 38.0006 233 38z"/>
<path style="fill:#f995a1; stroke:none;" d="M50 39L51 40L50 39z"/>
<path style="fill:#f99ba7; stroke:none;" d="M181 39L182 40L181 39z"/>
<path style="fill:#fb687d; stroke:none;" d="M223 39L223 42C223.696 40.4463 223.696 40.5537 223 39z"/>
<path style="fill:#f98d9b; stroke:none;" d="M243 39L244 40L243 39z"/>
<path style="fill:#fb8797; stroke:none;" d="M79 40L80 41L79 40z"/>
<path style="fill:#f78b9b; stroke:none;" d="M94 40L95 41L94 40z"/>
<path style="fill:#f998a4; stroke:none;" d="M91 46C95.9148 48.0038 101.999 45.9337 100 40L91 46z"/>
<path style="fill:#f7cbcf; stroke:none;" d="M192.667 40.3333C192.222 40.7778 193.278 40.7222 193.333 40.6667C193.778 40.2222 192.722 40.2778 192.667 40.3333z"/>
<path style="fill:#f7abb3; stroke:none;" d="M257 40L258 41L257 40z"/>
<path style="fill:#f998a4; stroke:none;" d="M263 40C260.534 42.7568 258.45 44.6371 255 46C259.427 47.805 267.999 45.3822 263 40z"/>
<path style="fill:#fb687a; stroke:none;" d="M23.3333 41.6667C23.2778 41.7222 23.2222 42.7778 23.6667 42.3333C23.7222 42.2778 23.7778 41.2222 23.3333 41.6667z"/>
<path style="fill:#f9919f; stroke:none;" d="M38 41L39 42L38 41z"/>
<path style="fill:#f7bbbf; stroke:none;" d="M95 41L96 42L95 41z"/>
<path style="fill:#fa93a2; stroke:none;" d="M113.667 41.3333C113.222 41.7778 114.278 41.7222 114.333 41.6667C114.778 41.2222 113.722 41.2778 113.667 41.3333z"/>
<path style="fill:#f998a4; stroke:none;" d="M111 46C115.026 47.6414 118.448 46.1758 122 44C117.938 40.1219 115.205 44.0578 111 46z"/>
<path style="fill:#fa7386; stroke:none;" d="M182 41L183 42L182 41z"/>
<path style="fill:#fa7b8c; stroke:none;" d="M236.667 41.3333C236.222 41.7778 237.278 41.7222 237.333 41.6667C237.778 41.2222 236.722 41.2778 236.667 41.3333z"/>
<path style="fill:#f998a4; stroke:none;" d="M234 46C238.248 47.7318 242.053 45.8419 246 44C241.298 40.0898 238.611 43.8704 234 46z"/>
<path style="fill:#fa7d8e; stroke:none;" d="M244 41L245 42L244 41z"/>
<path style="fill:#f98b99; stroke:none;" d="M268 41L269 42L268 41z"/>
<path style="fill:#f9b1b9; stroke:none;" d="M280 41L281 42L280 41z"/>
<path style="fill:#f998a4; stroke:none;" d="M277 46C281.566 47.7773 285.212 45.7647 286 41C282.438 41.9822 280.163 44.2386 277 46z"/>
<path style="fill:#fa788b; stroke:none;" d="M60 42C61.769 42.7789 63.0359 42.9124 65 43C63.231 42.2211 61.9641 42.0876 60 42z"/>
<path style="fill:#fb586f; stroke:none;" d="M70 42C71.5061 42.683 72.3148 42.8259 74 43C72.494 42.317 71.6852 42.1741 70 42z"/>
<path style="fill:#fb8b97; stroke:none;" d="M80 42L81 43L80 42z"/>
<path style="fill:#fa7888; stroke:none;" d="M87 42C88.5061 42.683 89.3148 42.8259 91 43C89.494 42.317 88.6852 42.1741 87 42z"/>
<path style="fill:#fa7b8e; stroke:none;" d="M115 42L116 43L115 42z"/>
<path style="fill:#fa7385; stroke:none;" d="M251 42C252.769 42.7789 254.036 42.9124 256 43C254.231 42.2211 252.964 42.0876 251 42z"/>
<path style="fill:#fa697d; stroke:none;" d="M260.333 42.6667C260.278 42.7223 260.222 43.7778 260.667 43.3333C260.722 43.2778 260.778 42.2222 260.333 42.6667z"/>
<path style="fill:#fa7f8f; stroke:none;" d="M274 42C275.506 42.6831 276.315 42.8259 278 43C276.494 42.317 275.685 42.1741 274 42z"/>
<path style="fill:#f7c3c7; stroke:none;" d="M23 43L24 44L23 43z"/>
<path style="fill:#fb7483; stroke:none;" d="M28.3333 43.6667C28.2778 43.7222 28.2222 44.7778 28.6667 44.3333C28.7222 44.2778 28.7778 43.2222 28.3333 43.6667z"/>
<path style="fill:#f7bbc3; stroke:none;" d="M39 43L40 44L39 43z"/>
<path style="fill:#fb5c72; stroke:none;" d="M24.3333 44.6667C24.2778 44.7222 24.2222 45.7778 24.6667 45.3333C24.7222 45.2778 24.7778 44.2222 24.3333 44.6667z"/>
<path style="fill:#fba7af; stroke:none;" d="M40 44L41 45L40 44z"/>
<path style="fill:#f79fab; stroke:none;" d="M102 44L103 45L102 44z"/>
<path style="fill:#f7c3cb; stroke:none;" d="M225 44L226 45L225 44z"/>
<path style="fill:#f79fab; stroke:none;" d="M246 44L247 45L246 44z"/>
<path style="fill:#fba7b3; stroke:none;" d="M269 44L270 45L269 44z"/>
<path style="fill:#f7cbcf; stroke:none;" d="M83 45L84 46L83 45z"/>
<path style="fill:#f7b3bb; stroke:none;" d="M185 45L186 46L185 45z"/>
<path style="fill:#fb5c72; stroke:none;" d="M227.667 45.3333C227.222 45.7778 228.278 45.7222 228.333 45.6667C228.778 45.2222 227.722 45.2778 227.667 45.3333z"/>
<path style="fill:#fb556c; stroke:none;" d="M248.667 45.3333C248.222 45.7778 249.278 45.7222 249.333 45.6667C249.778 45.2222 248.722 45.2778 248.667 45.3333z"/>
<path style="fill:#fb5c72; stroke:none;" d="M270.667 45.3333C270.222 45.7777 271.278 45.7222 271.333 45.6667C271.778 45.2222 270.722 45.2778 270.667 45.3333z"/>
<path style="fill:#f9a1ad; stroke:none;" d="M44 46L45 47L44 46z"/>
<path style="fill:#f97c8b; stroke:none;" d="M48 46L49 47L48 46z"/>
<path style="fill:#f9a1ad; stroke:none;" d="M86 46L87 47L86 46z"/>
<path style="fill:#f96e7f; stroke:none;" d="M106.667 46.3333C106.222 46.7778 107.278 46.7222 107.333 46.6667C107.778 46.2222 106.722 46.2778 106.667 46.3333z"/>
<path style="fill:#f997a3; stroke:none;" d="M141 46C142.769 46.7789 144.036 46.9124 146 47C144.231 46.2211 142.964 46.0876 141 46z"/>
<path style="fill:#f7c7cd; stroke:none;" d="M146 46C147.769 46.7789 149.036 46.9124 151 47C149.231 46.2211 147.964 46.0876 146 46z"/>
<path style="fill:#f98d99; stroke:none;" d="M188 46L189 47L188 46z"/>
<path style="fill:#f7bbc1; stroke:none;" d="M192.667 46.3333C192.222 46.7778 193.278 46.7222 193.333 46.6667C193.778 46.2222 192.722 46.2778 192.667 46.3333z"/>
<path style="fill:#f7cbcf; stroke:none;" d="M204 46L205 47L204 46z"/>
<path style="fill:#fb556d; stroke:none;" d="M211.333 46.6667C211.278 46.7222 211.222 47.7778 211.667 47.3333C211.722 47.2778 211.778 46.2222 211.333 46.6667z"/>
<path style="fill:#f7abb7; stroke:none;" d="M229 46L230 47L229 46z"/>
<path style="fill:#fb6c7e; stroke:none;" d="M250.667 46.3333C250.222 46.7778 251.278 46.7222 251.333 46.6667C251.778 46.2222 250.722 46.2778 250.667 46.3333z"/>
<path style="fill:#f7a7b1; stroke:none;" d="M272 46L273 47L272 46z"/>
<path style="fill:#f97887; stroke:none;" d="M276 46L277 47L276 46z"/>
<path style="fill:#fb566e; stroke:none;" d="M204.667 47.3333C204.222 47.7778 205.278 47.7222 205.333 47.6667C205.778 47.2222 204.722 47.2778 204.667 47.3333z"/>
<path style="fill:#f998a4; stroke:none;" d="M208 49C210.092 48.5943 210.02 48.7833 211 47C209.42 47.6836 209.223 47.8048 208 49z"/>
<path style="fill:#fa8796; stroke:none;" d="M203 48L204 49L203 48z"/>
<path style="fill:#fa6b7d; stroke:none;" d="M202.333 49.6667C202.278 49.7222 202.222 50.7778 202.667 50.3333C202.722 50.2777 202.778 49.2222 202.333 49.6667z"/>
<path style="fill:#fb5f75; stroke:none;" d="M207 49C208.248 49.6848 208.548 49.7488 210 50C208.752 49.3152 208.452 49.2512 207 49z"/>
<path style="fill:#f99ba7; stroke:none;" d="M207 53C208.248 53.6848 208.548 53.7488 210 54C208.752 53.3152 208.452 53.2512 207 53z"/>
<path style="fill:#f7cbcf; stroke:none;" d="M213.667 53.3333C213.222 53.7777 214.278 53.7222 214.333 53.6667C214.778 53.2222 213.722 53.2778 213.667 53.3333z"/>
</svg>
